<mxfile host="app.diagrams.net" modified="2024-01-02T17:35:02.376Z" agent="Mozilla/5.0 (Windows NT 10.0; Win64; x64) AppleWebKit/537.36 (KHTML, like Gecko) Chrome/120.0.0.0 Safari/537.36" version="22.1.16" etag="CEBMXHkmCHIByjjp-pWl" type="github">
  <diagram name="Page-1" id="ivLsSHjT_xRSakvj62Uy">
    <mxGraphModel>
      <root>
        <mxCell id="0" />
        <mxCell id="1" parent="0" />
      </root>
    </mxGraphModel>
  </diagram>
</mxfile>
